<mxfile host="app.diagrams.net" modified="2023-08-29T12:09:32.917Z" agent="Mozilla/5.0 (Windows NT 10.0; Win64; x64) AppleWebKit/537.36 (KHTML, like Gecko) Chrome/116.0.0.0 Safari/537.36" etag="cBgzjoFv0NddTm28vFkh" version="21.6.8" type="github">
  <diagram name="Page-1" id="e618gCeOLxRp_aL8OB4G">
    <mxGraphModel dx="794" dy="734" grid="1" gridSize="10" guides="1" tooltips="1" connect="1" arrows="1" fold="1" page="1" pageScale="1" pageWidth="850" pageHeight="1100" math="0" shadow="0">
      <root>
        <mxCell id="0" />
        <mxCell id="1" parent="0" />
        <mxCell id="SP0oKvtr4Py5_CDXxaQQ-31" value="" style="group" vertex="1" connectable="0" parent="1">
          <mxGeometry x="40" y="160" width="800" height="200" as="geometry" />
        </mxCell>
        <mxCell id="zm1EASkqW4-QGlxXP3uf-1" value="" style="ellipse;whiteSpace=wrap;html=1;aspect=fixed;strokeWidth=5;fillColor=none;gradientColor=#97d077;strokeColor=#72F028;" parent="SP0oKvtr4Py5_CDXxaQQ-31" vertex="1">
          <mxGeometry x="40" y="40" width="80" height="80" as="geometry" />
        </mxCell>
        <mxCell id="zm1EASkqW4-QGlxXP3uf-3" value="" style="rhombus;whiteSpace=wrap;html=1;strokeWidth=5;strokeColor=#72F028;" parent="SP0oKvtr4Py5_CDXxaQQ-31" vertex="1">
          <mxGeometry x="360" y="40" width="80" height="80" as="geometry" />
        </mxCell>
        <mxCell id="zm1EASkqW4-QGlxXP3uf-5" value="" style="shape=mxgraph.sysml.x;strokeWidth=5;direction=south;strokeColor=#72F028;" parent="SP0oKvtr4Py5_CDXxaQQ-31" vertex="1">
          <mxGeometry x="690" y="50" width="60" height="60" as="geometry" />
        </mxCell>
        <mxCell id="zm1EASkqW4-QGlxXP3uf-6" value="" style="endArrow=none;html=1;rounded=0;" parent="SP0oKvtr4Py5_CDXxaQQ-31" edge="1">
          <mxGeometry width="50" height="50" relative="1" as="geometry">
            <mxPoint as="sourcePoint" />
            <mxPoint x="800" as="targetPoint" />
          </mxGeometry>
        </mxCell>
        <mxCell id="zm1EASkqW4-QGlxXP3uf-7" value="" style="endArrow=none;html=1;rounded=0;" parent="SP0oKvtr4Py5_CDXxaQQ-31" edge="1">
          <mxGeometry width="50" height="50" relative="1" as="geometry">
            <mxPoint y="160" as="sourcePoint" />
            <mxPoint x="800" y="160" as="targetPoint" />
          </mxGeometry>
        </mxCell>
        <mxCell id="zm1EASkqW4-QGlxXP3uf-8" value="" style="endArrow=none;html=1;rounded=0;" parent="SP0oKvtr4Py5_CDXxaQQ-31" edge="1">
          <mxGeometry width="50" height="50" relative="1" as="geometry">
            <mxPoint y="160" as="sourcePoint" />
            <mxPoint as="targetPoint" />
          </mxGeometry>
        </mxCell>
        <mxCell id="zm1EASkqW4-QGlxXP3uf-9" value="" style="endArrow=none;html=1;rounded=0;" parent="SP0oKvtr4Py5_CDXxaQQ-31" edge="1">
          <mxGeometry width="50" height="50" relative="1" as="geometry">
            <mxPoint x="160" y="160" as="sourcePoint" />
            <mxPoint x="160" as="targetPoint" />
          </mxGeometry>
        </mxCell>
        <mxCell id="zm1EASkqW4-QGlxXP3uf-10" value="" style="endArrow=none;html=1;rounded=0;" parent="SP0oKvtr4Py5_CDXxaQQ-31" edge="1">
          <mxGeometry width="50" height="50" relative="1" as="geometry">
            <mxPoint x="320" y="160" as="sourcePoint" />
            <mxPoint x="320" as="targetPoint" />
          </mxGeometry>
        </mxCell>
        <mxCell id="zm1EASkqW4-QGlxXP3uf-11" value="" style="endArrow=none;html=1;rounded=0;" parent="SP0oKvtr4Py5_CDXxaQQ-31" edge="1">
          <mxGeometry width="50" height="50" relative="1" as="geometry">
            <mxPoint x="480" y="160" as="sourcePoint" />
            <mxPoint x="480" as="targetPoint" />
          </mxGeometry>
        </mxCell>
        <mxCell id="zm1EASkqW4-QGlxXP3uf-12" value="" style="endArrow=none;html=1;rounded=0;" parent="SP0oKvtr4Py5_CDXxaQQ-31" edge="1">
          <mxGeometry width="50" height="50" relative="1" as="geometry">
            <mxPoint x="640" y="160" as="sourcePoint" />
            <mxPoint x="640" as="targetPoint" />
          </mxGeometry>
        </mxCell>
        <mxCell id="zm1EASkqW4-QGlxXP3uf-13" value="" style="endArrow=none;html=1;rounded=0;" parent="SP0oKvtr4Py5_CDXxaQQ-31" edge="1">
          <mxGeometry width="50" height="50" relative="1" as="geometry">
            <mxPoint x="800" y="160" as="sourcePoint" />
            <mxPoint x="800" as="targetPoint" />
          </mxGeometry>
        </mxCell>
        <mxCell id="zm1EASkqW4-QGlxXP3uf-14" value="" style="triangle;whiteSpace=wrap;html=1;rotation=-90;strokeWidth=5;gradientColor=default;fillColor=none;strokeColor=#72F028;" parent="SP0oKvtr4Py5_CDXxaQQ-31" vertex="1">
          <mxGeometry x="200" y="40" width="80" height="80" as="geometry" />
        </mxCell>
        <mxCell id="zm1EASkqW4-QGlxXP3uf-15" value="&lt;font style=&quot;font-size: 18px; font-weight: normal;&quot; face=&quot;Times New Roman&quot;&gt;(a) Circle&lt;/font&gt;" style="text;strokeColor=none;align=center;fillColor=none;html=1;verticalAlign=middle;whiteSpace=wrap;rounded=0;fontStyle=1" parent="SP0oKvtr4Py5_CDXxaQQ-31" vertex="1">
          <mxGeometry y="170" width="160" height="30" as="geometry" />
        </mxCell>
        <mxCell id="zm1EASkqW4-QGlxXP3uf-17" value="&lt;font style=&quot;font-size: 18px;&quot; face=&quot;Times New Roman&quot;&gt;(b) Triangle&lt;/font&gt;" style="text;strokeColor=none;align=center;fillColor=none;html=1;verticalAlign=middle;whiteSpace=wrap;rounded=0;" parent="SP0oKvtr4Py5_CDXxaQQ-31" vertex="1">
          <mxGeometry x="160" y="170" width="160" height="30" as="geometry" />
        </mxCell>
        <mxCell id="zm1EASkqW4-QGlxXP3uf-18" value="&lt;font style=&quot;font-size: 18px;&quot; face=&quot;Times New Roman&quot;&gt;(c) Diamond&lt;/font&gt;" style="text;strokeColor=none;align=center;fillColor=none;html=1;verticalAlign=middle;whiteSpace=wrap;rounded=0;" parent="SP0oKvtr4Py5_CDXxaQQ-31" vertex="1">
          <mxGeometry x="320" y="170" width="160" height="30" as="geometry" />
        </mxCell>
        <mxCell id="zm1EASkqW4-QGlxXP3uf-19" value="&lt;font style=&quot;font-size: 18px;&quot; face=&quot;Times New Roman&quot;&gt;(d) Check Mark&lt;/font&gt;" style="text;strokeColor=none;align=center;fillColor=none;html=1;verticalAlign=middle;whiteSpace=wrap;rounded=0;" parent="SP0oKvtr4Py5_CDXxaQQ-31" vertex="1">
          <mxGeometry x="480" y="170" width="160" height="30" as="geometry" />
        </mxCell>
        <mxCell id="zm1EASkqW4-QGlxXP3uf-20" value="&lt;font style=&quot;font-size: 18px;&quot; face=&quot;Times New Roman&quot;&gt;(e) Cross Mark&lt;/font&gt;" style="text;strokeColor=none;align=center;fillColor=none;html=1;verticalAlign=middle;whiteSpace=wrap;rounded=0;" parent="SP0oKvtr4Py5_CDXxaQQ-31" vertex="1">
          <mxGeometry x="640" y="170" width="160" height="30" as="geometry" />
        </mxCell>
        <mxCell id="zm1EASkqW4-QGlxXP3uf-28" value="" style="endArrow=none;html=1;rounded=0;strokeWidth=5;strokeColor=#72F028;" parent="SP0oKvtr4Py5_CDXxaQQ-31" edge="1">
          <mxGeometry width="50" height="50" relative="1" as="geometry">
            <mxPoint x="600" y="40" as="sourcePoint" />
            <mxPoint x="520" y="70" as="targetPoint" />
            <Array as="points">
              <mxPoint x="550" y="100" />
            </Array>
          </mxGeometry>
        </mxCell>
        <mxCell id="SP0oKvtr4Py5_CDXxaQQ-32" value="" style="group" vertex="1" connectable="0" parent="1">
          <mxGeometry x="40" y="360" width="800" height="400" as="geometry" />
        </mxCell>
        <mxCell id="SP0oKvtr4Py5_CDXxaQQ-36" value="" style="endArrow=none;html=1;rounded=0;" edge="1" parent="SP0oKvtr4Py5_CDXxaQQ-32">
          <mxGeometry width="50" height="50" relative="1" as="geometry">
            <mxPoint as="sourcePoint" />
            <mxPoint x="800" as="targetPoint" />
          </mxGeometry>
        </mxCell>
        <mxCell id="SP0oKvtr4Py5_CDXxaQQ-37" value="" style="endArrow=none;html=1;rounded=0;" edge="1" parent="SP0oKvtr4Py5_CDXxaQQ-32">
          <mxGeometry width="50" height="50" relative="1" as="geometry">
            <mxPoint y="160" as="sourcePoint" />
            <mxPoint x="800" y="160" as="targetPoint" />
          </mxGeometry>
        </mxCell>
        <mxCell id="SP0oKvtr4Py5_CDXxaQQ-38" value="" style="endArrow=none;html=1;rounded=0;" edge="1" parent="SP0oKvtr4Py5_CDXxaQQ-32">
          <mxGeometry width="50" height="50" relative="1" as="geometry">
            <mxPoint y="160" as="sourcePoint" />
            <mxPoint as="targetPoint" />
          </mxGeometry>
        </mxCell>
        <mxCell id="SP0oKvtr4Py5_CDXxaQQ-39" value="" style="endArrow=none;html=1;rounded=0;" edge="1" parent="SP0oKvtr4Py5_CDXxaQQ-32">
          <mxGeometry width="50" height="50" relative="1" as="geometry">
            <mxPoint x="160" y="160" as="sourcePoint" />
            <mxPoint x="160" as="targetPoint" />
          </mxGeometry>
        </mxCell>
        <mxCell id="SP0oKvtr4Py5_CDXxaQQ-40" value="" style="endArrow=none;html=1;rounded=0;" edge="1" parent="SP0oKvtr4Py5_CDXxaQQ-32">
          <mxGeometry width="50" height="50" relative="1" as="geometry">
            <mxPoint x="320" y="160" as="sourcePoint" />
            <mxPoint x="320" as="targetPoint" />
          </mxGeometry>
        </mxCell>
        <mxCell id="SP0oKvtr4Py5_CDXxaQQ-41" value="" style="endArrow=none;html=1;rounded=0;" edge="1" parent="SP0oKvtr4Py5_CDXxaQQ-32">
          <mxGeometry width="50" height="50" relative="1" as="geometry">
            <mxPoint x="480" y="160" as="sourcePoint" />
            <mxPoint x="480" as="targetPoint" />
          </mxGeometry>
        </mxCell>
        <mxCell id="SP0oKvtr4Py5_CDXxaQQ-42" value="" style="endArrow=none;html=1;rounded=0;" edge="1" parent="SP0oKvtr4Py5_CDXxaQQ-32">
          <mxGeometry width="50" height="50" relative="1" as="geometry">
            <mxPoint x="640" y="160" as="sourcePoint" />
            <mxPoint x="640" as="targetPoint" />
          </mxGeometry>
        </mxCell>
        <mxCell id="SP0oKvtr4Py5_CDXxaQQ-43" value="" style="endArrow=none;html=1;rounded=0;" edge="1" parent="SP0oKvtr4Py5_CDXxaQQ-32">
          <mxGeometry width="50" height="50" relative="1" as="geometry">
            <mxPoint x="800" y="160" as="sourcePoint" />
            <mxPoint x="800" as="targetPoint" />
          </mxGeometry>
        </mxCell>
        <mxCell id="SP0oKvtr4Py5_CDXxaQQ-45" value="&lt;font style=&quot;font-size: 18px; font-weight: normal;&quot; face=&quot;Times New Roman&quot;&gt;(f) Letter A&lt;/font&gt;" style="text;strokeColor=none;align=center;fillColor=none;html=1;verticalAlign=middle;whiteSpace=wrap;rounded=0;fontStyle=1" vertex="1" parent="SP0oKvtr4Py5_CDXxaQQ-32">
          <mxGeometry y="170" width="160" height="30" as="geometry" />
        </mxCell>
        <mxCell id="SP0oKvtr4Py5_CDXxaQQ-46" value="&lt;font style=&quot;font-size: 18px;&quot; face=&quot;Times New Roman&quot;&gt;(g) Letter B&lt;/font&gt;" style="text;strokeColor=none;align=center;fillColor=none;html=1;verticalAlign=middle;whiteSpace=wrap;rounded=0;" vertex="1" parent="SP0oKvtr4Py5_CDXxaQQ-32">
          <mxGeometry x="160" y="170" width="160" height="30" as="geometry" />
        </mxCell>
        <mxCell id="SP0oKvtr4Py5_CDXxaQQ-47" value="&lt;font style=&quot;font-size: 18px;&quot; face=&quot;Times New Roman&quot;&gt;(h) Letter C&lt;/font&gt;" style="text;strokeColor=none;align=center;fillColor=none;html=1;verticalAlign=middle;whiteSpace=wrap;rounded=0;" vertex="1" parent="SP0oKvtr4Py5_CDXxaQQ-32">
          <mxGeometry x="320" y="170" width="160" height="30" as="geometry" />
        </mxCell>
        <mxCell id="SP0oKvtr4Py5_CDXxaQQ-48" value="&lt;font style=&quot;font-size: 18px;&quot; face=&quot;Times New Roman&quot;&gt;(i) Letter D&lt;/font&gt;" style="text;strokeColor=none;align=center;fillColor=none;html=1;verticalAlign=middle;whiteSpace=wrap;rounded=0;" vertex="1" parent="SP0oKvtr4Py5_CDXxaQQ-32">
          <mxGeometry x="480" y="170" width="160" height="30" as="geometry" />
        </mxCell>
        <mxCell id="SP0oKvtr4Py5_CDXxaQQ-49" value="&lt;font style=&quot;font-size: 18px;&quot; face=&quot;Times New Roman&quot;&gt;(j) Letter E&lt;/font&gt;" style="text;strokeColor=none;align=center;fillColor=none;html=1;verticalAlign=middle;whiteSpace=wrap;rounded=0;" vertex="1" parent="SP0oKvtr4Py5_CDXxaQQ-32">
          <mxGeometry x="640" y="170" width="160" height="30" as="geometry" />
        </mxCell>
        <mxCell id="SP0oKvtr4Py5_CDXxaQQ-51" value="" style="group" vertex="1" connectable="0" parent="SP0oKvtr4Py5_CDXxaQQ-32">
          <mxGeometry y="200" width="800" height="200" as="geometry" />
        </mxCell>
        <mxCell id="SP0oKvtr4Py5_CDXxaQQ-55" value="" style="endArrow=none;html=1;rounded=0;" edge="1" parent="SP0oKvtr4Py5_CDXxaQQ-51">
          <mxGeometry width="50" height="50" relative="1" as="geometry">
            <mxPoint as="sourcePoint" />
            <mxPoint x="800" as="targetPoint" />
          </mxGeometry>
        </mxCell>
        <mxCell id="SP0oKvtr4Py5_CDXxaQQ-56" value="" style="endArrow=none;html=1;rounded=0;" edge="1" parent="SP0oKvtr4Py5_CDXxaQQ-51">
          <mxGeometry width="50" height="50" relative="1" as="geometry">
            <mxPoint y="160" as="sourcePoint" />
            <mxPoint x="800" y="160" as="targetPoint" />
          </mxGeometry>
        </mxCell>
        <mxCell id="SP0oKvtr4Py5_CDXxaQQ-57" value="" style="endArrow=none;html=1;rounded=0;" edge="1" parent="SP0oKvtr4Py5_CDXxaQQ-51">
          <mxGeometry width="50" height="50" relative="1" as="geometry">
            <mxPoint y="160" as="sourcePoint" />
            <mxPoint as="targetPoint" />
          </mxGeometry>
        </mxCell>
        <mxCell id="SP0oKvtr4Py5_CDXxaQQ-58" value="" style="endArrow=none;html=1;rounded=0;" edge="1" parent="SP0oKvtr4Py5_CDXxaQQ-51">
          <mxGeometry width="50" height="50" relative="1" as="geometry">
            <mxPoint x="160" y="160" as="sourcePoint" />
            <mxPoint x="160" as="targetPoint" />
          </mxGeometry>
        </mxCell>
        <mxCell id="SP0oKvtr4Py5_CDXxaQQ-59" value="" style="endArrow=none;html=1;rounded=0;" edge="1" parent="SP0oKvtr4Py5_CDXxaQQ-51">
          <mxGeometry width="50" height="50" relative="1" as="geometry">
            <mxPoint x="320" y="160" as="sourcePoint" />
            <mxPoint x="320" as="targetPoint" />
          </mxGeometry>
        </mxCell>
        <mxCell id="SP0oKvtr4Py5_CDXxaQQ-60" value="" style="endArrow=none;html=1;rounded=0;" edge="1" parent="SP0oKvtr4Py5_CDXxaQQ-51">
          <mxGeometry width="50" height="50" relative="1" as="geometry">
            <mxPoint x="480" y="160" as="sourcePoint" />
            <mxPoint x="480" as="targetPoint" />
          </mxGeometry>
        </mxCell>
        <mxCell id="SP0oKvtr4Py5_CDXxaQQ-61" value="" style="endArrow=none;html=1;rounded=0;" edge="1" parent="SP0oKvtr4Py5_CDXxaQQ-51">
          <mxGeometry width="50" height="50" relative="1" as="geometry">
            <mxPoint x="640" y="160" as="sourcePoint" />
            <mxPoint x="640" as="targetPoint" />
          </mxGeometry>
        </mxCell>
        <mxCell id="SP0oKvtr4Py5_CDXxaQQ-62" value="" style="endArrow=none;html=1;rounded=0;" edge="1" parent="SP0oKvtr4Py5_CDXxaQQ-51">
          <mxGeometry width="50" height="50" relative="1" as="geometry">
            <mxPoint x="800" y="160" as="sourcePoint" />
            <mxPoint x="800" as="targetPoint" />
          </mxGeometry>
        </mxCell>
        <mxCell id="SP0oKvtr4Py5_CDXxaQQ-64" value="&lt;font style=&quot;font-size: 18px; font-weight: normal;&quot; face=&quot;Times New Roman&quot;&gt;(k) Number 1&lt;/font&gt;" style="text;strokeColor=none;align=center;fillColor=none;html=1;verticalAlign=middle;whiteSpace=wrap;rounded=0;fontStyle=1" vertex="1" parent="SP0oKvtr4Py5_CDXxaQQ-51">
          <mxGeometry y="170" width="160" height="30" as="geometry" />
        </mxCell>
        <mxCell id="SP0oKvtr4Py5_CDXxaQQ-65" value="&lt;font style=&quot;font-size: 18px;&quot; face=&quot;Times New Roman&quot;&gt;(l) Number 2&lt;/font&gt;" style="text;strokeColor=none;align=center;fillColor=none;html=1;verticalAlign=middle;whiteSpace=wrap;rounded=0;" vertex="1" parent="SP0oKvtr4Py5_CDXxaQQ-51">
          <mxGeometry x="160" y="170" width="160" height="30" as="geometry" />
        </mxCell>
        <mxCell id="SP0oKvtr4Py5_CDXxaQQ-66" value="&lt;font style=&quot;font-size: 18px;&quot; face=&quot;Times New Roman&quot;&gt;(m) Number 3&lt;/font&gt;" style="text;strokeColor=none;align=center;fillColor=none;html=1;verticalAlign=middle;whiteSpace=wrap;rounded=0;" vertex="1" parent="SP0oKvtr4Py5_CDXxaQQ-51">
          <mxGeometry x="320" y="170" width="160" height="30" as="geometry" />
        </mxCell>
        <mxCell id="SP0oKvtr4Py5_CDXxaQQ-67" value="&lt;font style=&quot;font-size: 18px;&quot; face=&quot;Times New Roman&quot;&gt;(n) Number 4&lt;/font&gt;" style="text;strokeColor=none;align=center;fillColor=none;html=1;verticalAlign=middle;whiteSpace=wrap;rounded=0;" vertex="1" parent="SP0oKvtr4Py5_CDXxaQQ-51">
          <mxGeometry x="480" y="170" width="160" height="30" as="geometry" />
        </mxCell>
        <mxCell id="SP0oKvtr4Py5_CDXxaQQ-68" value="&lt;font style=&quot;font-size: 18px;&quot; face=&quot;Times New Roman&quot;&gt;(o) Number 5&lt;/font&gt;" style="text;strokeColor=none;align=center;fillColor=none;html=1;verticalAlign=middle;whiteSpace=wrap;rounded=0;" vertex="1" parent="SP0oKvtr4Py5_CDXxaQQ-51">
          <mxGeometry x="640" y="170" width="160" height="30" as="geometry" />
        </mxCell>
        <mxCell id="SP0oKvtr4Py5_CDXxaQQ-107" value="&lt;b&gt;&lt;font style=&quot;&quot;&gt;&lt;font color=&quot;#71e82c&quot;&gt;&lt;span style=&quot;font-size: 99px;&quot;&gt;1&lt;/span&gt;&lt;/font&gt;&lt;br&gt;&lt;/font&gt;&lt;/b&gt;" style="text;strokeColor=none;align=center;fillColor=none;html=1;verticalAlign=middle;whiteSpace=wrap;rounded=0;" vertex="1" parent="SP0oKvtr4Py5_CDXxaQQ-51">
          <mxGeometry x="40" y="40" width="80" height="80" as="geometry" />
        </mxCell>
        <mxCell id="SP0oKvtr4Py5_CDXxaQQ-108" value="&lt;b&gt;&lt;font style=&quot;&quot;&gt;&lt;font color=&quot;#71e82c&quot;&gt;&lt;span style=&quot;font-size: 99px;&quot;&gt;2&lt;/span&gt;&lt;/font&gt;&lt;br&gt;&lt;/font&gt;&lt;/b&gt;" style="text;strokeColor=none;align=center;fillColor=none;html=1;verticalAlign=middle;whiteSpace=wrap;rounded=0;" vertex="1" parent="SP0oKvtr4Py5_CDXxaQQ-51">
          <mxGeometry x="200" y="40" width="80" height="80" as="geometry" />
        </mxCell>
        <mxCell id="SP0oKvtr4Py5_CDXxaQQ-109" value="&lt;b&gt;&lt;font style=&quot;&quot;&gt;&lt;font color=&quot;#71e82c&quot;&gt;&lt;span style=&quot;font-size: 99px;&quot;&gt;3&lt;/span&gt;&lt;/font&gt;&lt;br&gt;&lt;/font&gt;&lt;/b&gt;" style="text;strokeColor=none;align=center;fillColor=none;html=1;verticalAlign=middle;whiteSpace=wrap;rounded=0;" vertex="1" parent="SP0oKvtr4Py5_CDXxaQQ-51">
          <mxGeometry x="360" y="40" width="80" height="80" as="geometry" />
        </mxCell>
        <mxCell id="SP0oKvtr4Py5_CDXxaQQ-110" value="&lt;b&gt;&lt;font style=&quot;&quot;&gt;&lt;font color=&quot;#71e82c&quot;&gt;&lt;span style=&quot;font-size: 99px;&quot;&gt;4&lt;/span&gt;&lt;/font&gt;&lt;br&gt;&lt;/font&gt;&lt;/b&gt;" style="text;strokeColor=none;align=center;fillColor=none;html=1;verticalAlign=middle;whiteSpace=wrap;rounded=0;" vertex="1" parent="SP0oKvtr4Py5_CDXxaQQ-51">
          <mxGeometry x="520" y="40" width="80" height="80" as="geometry" />
        </mxCell>
        <mxCell id="SP0oKvtr4Py5_CDXxaQQ-111" value="&lt;b&gt;&lt;font style=&quot;&quot;&gt;&lt;font color=&quot;#71e82c&quot;&gt;&lt;span style=&quot;font-size: 99px;&quot;&gt;5&lt;/span&gt;&lt;/font&gt;&lt;br&gt;&lt;/font&gt;&lt;/b&gt;" style="text;strokeColor=none;align=center;fillColor=none;html=1;verticalAlign=middle;whiteSpace=wrap;rounded=0;" vertex="1" parent="SP0oKvtr4Py5_CDXxaQQ-51">
          <mxGeometry x="680" y="40" width="80" height="80" as="geometry" />
        </mxCell>
        <mxCell id="SP0oKvtr4Py5_CDXxaQQ-70" value="&lt;b&gt;&lt;font style=&quot;&quot;&gt;&lt;font color=&quot;#71e82c&quot;&gt;&lt;span style=&quot;font-size: 99px;&quot;&gt;A&lt;/span&gt;&lt;/font&gt;&lt;br&gt;&lt;/font&gt;&lt;/b&gt;" style="text;strokeColor=none;align=center;fillColor=none;html=1;verticalAlign=middle;whiteSpace=wrap;rounded=0;" vertex="1" parent="SP0oKvtr4Py5_CDXxaQQ-32">
          <mxGeometry x="40" y="40" width="80" height="80" as="geometry" />
        </mxCell>
        <mxCell id="SP0oKvtr4Py5_CDXxaQQ-71" value="&lt;b&gt;&lt;font style=&quot;&quot;&gt;&lt;font color=&quot;#71e82c&quot;&gt;&lt;span style=&quot;font-size: 99px;&quot;&gt;B&lt;/span&gt;&lt;/font&gt;&lt;br&gt;&lt;/font&gt;&lt;/b&gt;" style="text;strokeColor=none;align=center;fillColor=none;html=1;verticalAlign=middle;whiteSpace=wrap;rounded=0;" vertex="1" parent="SP0oKvtr4Py5_CDXxaQQ-32">
          <mxGeometry x="200" y="40" width="80" height="80" as="geometry" />
        </mxCell>
        <mxCell id="SP0oKvtr4Py5_CDXxaQQ-72" value="&lt;b&gt;&lt;font style=&quot;&quot;&gt;&lt;font color=&quot;#71e82c&quot;&gt;&lt;span style=&quot;font-size: 99px;&quot;&gt;C&lt;/span&gt;&lt;/font&gt;&lt;br&gt;&lt;/font&gt;&lt;/b&gt;" style="text;strokeColor=none;align=center;fillColor=none;html=1;verticalAlign=middle;whiteSpace=wrap;rounded=0;" vertex="1" parent="SP0oKvtr4Py5_CDXxaQQ-32">
          <mxGeometry x="360" y="40" width="80" height="80" as="geometry" />
        </mxCell>
        <mxCell id="SP0oKvtr4Py5_CDXxaQQ-73" value="&lt;b&gt;&lt;font style=&quot;&quot;&gt;&lt;font color=&quot;#71e82c&quot;&gt;&lt;span style=&quot;font-size: 99px;&quot;&gt;D&lt;/span&gt;&lt;/font&gt;&lt;br&gt;&lt;/font&gt;&lt;/b&gt;" style="text;strokeColor=none;align=center;fillColor=none;html=1;verticalAlign=middle;whiteSpace=wrap;rounded=0;" vertex="1" parent="SP0oKvtr4Py5_CDXxaQQ-32">
          <mxGeometry x="520" y="40" width="80" height="80" as="geometry" />
        </mxCell>
        <mxCell id="SP0oKvtr4Py5_CDXxaQQ-106" value="&lt;b&gt;&lt;font style=&quot;&quot;&gt;&lt;font color=&quot;#71e82c&quot;&gt;&lt;span style=&quot;font-size: 99px;&quot;&gt;E&lt;/span&gt;&lt;/font&gt;&lt;br&gt;&lt;/font&gt;&lt;/b&gt;" style="text;strokeColor=none;align=center;fillColor=none;html=1;verticalAlign=middle;whiteSpace=wrap;rounded=0;" vertex="1" parent="SP0oKvtr4Py5_CDXxaQQ-32">
          <mxGeometry x="680" y="40" width="80" height="80" as="geometry" />
        </mxCell>
      </root>
    </mxGraphModel>
  </diagram>
</mxfile>
